<svg width="44" height="45" viewBox="0 0 44 45" fill="none" xmlns="http://www.w3.org/2000/svg">
<rect y="0.046875" width="44" height="44" rx="22" fill="#0082FF"/>
<path d="M15.0001 25.2569V22.4569H17.8001V25.2569H15.0001ZM29.0001 14.7485C28.9978 14.193 28.7756 13.661 28.382 13.269C27.9884 12.877 27.4556 12.6569 26.9001 12.6569H12.7923C12.2353 12.6569 11.7012 12.8782 11.3073 13.272C10.9135 13.6658 10.6923 14.2 10.6923 14.7569V27.3569C10.6923 28.2852 11.061 29.1754 11.7174 29.8318C12.3738 30.4882 13.264 30.8569 14.1923 30.8569H29.8079C30.7361 30.8569 31.6264 30.4882 32.2827 29.8318C32.9391 29.1754 33.3079 28.2852 33.3079 27.3569V18.9569C33.3079 18.4 33.0866 17.8658 32.6928 17.472C32.299 17.0782 31.7648 16.8569 31.2079 16.8569H30.4001V26.9789C30.4001 27.1646 30.3263 27.3426 30.195 27.4739C30.0638 27.6052 29.8857 27.6789 29.7001 27.6789C29.5144 27.6789 29.3364 27.6052 29.2051 27.4739C29.0738 27.3426 29.0001 27.1646 29.0001 26.9789V14.7485ZM13.6001 17.5569C13.6001 17.3713 13.6738 17.1932 13.8051 17.0619C13.9364 16.9307 14.1144 16.8569 14.3001 16.8569H25.5001C25.6857 16.8569 25.8638 16.9307 25.995 17.0619C26.1263 17.1932 26.2001 17.3713 26.2001 17.5569C26.2001 17.7426 26.1263 17.9206 25.995 18.0519C25.8638 18.1832 25.6857 18.2569 25.5001 18.2569H14.3001C14.1144 18.2569 13.9364 18.1832 13.8051 18.0519C13.6738 17.9206 13.6001 17.7426 13.6001 17.5569ZM21.3001 21.0569H25.5001C25.6857 21.0569 25.8638 21.1307 25.995 21.2619C26.1263 21.3932 26.2001 21.5713 26.2001 21.7569C26.2001 21.9426 26.1263 22.1206 25.995 22.2519C25.8638 22.3832 25.6857 22.4569 25.5001 22.4569H21.3001C21.1144 22.4569 20.9364 22.3832 20.8051 22.2519C20.6738 22.1206 20.6001 21.9426 20.6001 21.7569C20.6001 21.5713 20.6738 21.3932 20.8051 21.2619C20.9364 21.1307 21.1144 21.0569 21.3001 21.0569ZM20.6001 25.9569C20.6001 25.7713 20.6738 25.5932 20.8051 25.4619C20.9364 25.3307 21.1144 25.2569 21.3001 25.2569H25.5001C25.6857 25.2569 25.8638 25.3307 25.995 25.4619C26.1263 25.5932 26.2001 25.7713 26.2001 25.9569C26.2001 26.1426 26.1263 26.3206 25.995 26.4519C25.8638 26.5832 25.6857 26.6569 25.5001 26.6569H21.3001C21.1144 26.6569 20.9364 26.5832 20.8051 26.4519C20.6738 26.3206 20.6001 26.1426 20.6001 25.9569ZM14.3001 21.0569H18.5001C18.6857 21.0569 18.8638 21.1307 18.995 21.2619C19.1263 21.3932 19.2001 21.5713 19.2001 21.7569V25.9569C19.2001 26.1426 19.1263 26.3206 18.995 26.4519C18.8638 26.5832 18.6857 26.6569 18.5001 26.6569H14.3001C14.1144 26.6569 13.9364 26.5832 13.8051 26.4519C13.6738 26.3206 13.6001 26.1426 13.6001 25.9569V21.7569C13.6001 21.5713 13.6738 21.3932 13.8051 21.2619C13.9364 21.1307 14.1144 21.0569 14.3001 21.0569Z" fill="white"/>
</svg>
