<svg width="117" height="121" viewBox="0 0 117 121" fill="none" xmlns="http://www.w3.org/2000/svg">
<rect y="0.796875" width="116.86" height="120" rx="58.43" fill="#EBF9F4"/>
<path d="M33.019 73.0469L44.577 50.1895V49.9956H31.2091V46.5696H48.714V50.112L37.1949 73.0469H33.019ZM61.8848 73.4089C60.704 73.3916 59.5405 73.1762 58.3942 72.7625C57.2565 72.3487 56.2222 71.6592 55.2913 70.6939C54.3605 69.7286 53.615 68.4315 53.0547 66.8025C52.5031 65.1735 52.2273 63.1394 52.2273 60.7003C52.2273 58.3904 52.4557 56.3391 52.9125 54.5464C53.3779 52.7537 54.0459 51.241 54.9164 50.0085C55.7869 48.7674 56.8384 47.8237 58.0709 47.1772C59.3034 46.5308 60.6868 46.2076 62.2209 46.2076C63.7982 46.2076 65.1988 46.5179 66.4227 47.1384C67.6465 47.759 68.6377 48.6166 69.3962 49.7112C70.1633 50.8058 70.6502 52.0512 70.8571 53.4475H66.9139C66.6468 52.3443 66.1167 51.4436 65.3238 50.7455C64.5308 50.0473 63.4965 49.6983 62.2209 49.6983C60.2817 49.6983 58.7691 50.5429 57.6831 52.2322C56.6057 53.9215 56.0627 56.2702 56.0541 59.2782H56.248C56.7048 58.5283 57.2651 57.8905 57.9287 57.3648C58.601 56.8304 59.3508 56.421 60.1783 56.1366C61.0143 55.8435 61.8934 55.697 62.8156 55.697C64.3498 55.697 65.7375 56.0719 66.9786 56.8218C68.2283 57.563 69.2238 58.5887 69.965 59.8987C70.7063 61.2088 71.0769 62.7085 71.0769 64.3978C71.0769 66.0871 70.6933 67.617 69.9262 68.9874C69.1678 70.3578 68.099 71.4438 66.72 72.2453C65.341 73.0383 63.7293 73.4261 61.8848 73.4089ZM61.8719 70.0475C62.8889 70.0475 63.7982 69.7975 64.5998 69.2977C65.4013 68.7978 66.0348 68.1255 66.5002 67.2808C66.9657 66.4362 67.1984 65.4924 67.1984 64.4495C67.1984 63.4325 66.97 62.506 66.5132 61.6699C66.065 60.8339 65.4444 60.1702 64.6515 59.679C63.8672 59.1877 62.9708 58.942 61.9624 58.942C61.1953 58.942 60.4842 59.0886 59.8292 59.3816C59.1828 59.6746 58.6139 60.0797 58.1227 60.5969C57.6314 61.114 57.2435 61.7087 56.9591 62.381C56.6833 63.0446 56.5454 63.7471 56.5454 64.4883C56.5454 65.4795 56.7738 66.3974 57.2306 67.242C57.696 68.0867 58.3295 68.7676 59.1311 69.2847C59.9412 69.7932 60.8548 70.0475 61.8719 70.0475Z" fill="#0FBA83"/>
<path d="M82.7733 64.6151V64.0014C82.7733 63.562 82.8642 63.1605 83.046 62.7969C83.2316 62.4295 83.5005 62.1359 83.8528 61.9162C84.2089 61.6927 84.6388 61.581 85.1426 61.581C85.6577 61.581 86.0895 61.6908 86.438 61.9105C86.7865 62.1302 87.0498 62.4238 87.2278 62.7912C87.4096 63.1586 87.5005 63.562 87.5005 64.0014V64.6151C87.5005 65.0545 87.4096 65.4579 87.2278 65.8253C87.046 66.1889 86.7789 66.4825 86.4267 66.706C86.0782 66.9257 85.6502 67.0355 85.1426 67.0355C84.6312 67.0355 84.1994 66.9257 83.8471 66.706C83.4949 66.4825 83.2278 66.1889 83.046 65.8253C82.8642 65.4579 82.7733 65.0545 82.7733 64.6151ZM84.0971 64.0014V64.6151C84.0971 64.9408 84.1748 65.2363 84.3301 65.5014C84.4854 65.7666 84.7562 65.8991 85.1426 65.8991C85.5252 65.8991 85.7922 65.7666 85.9437 65.5014C86.0952 65.2363 86.171 64.9408 86.171 64.6151V64.0014C86.171 63.6757 86.0971 63.3802 85.9494 63.1151C85.8055 62.8499 85.5365 62.7173 85.1426 62.7173C84.7638 62.7173 84.4949 62.8499 84.3358 63.1151C84.1767 63.3802 84.0971 63.6757 84.0971 64.0014ZM76.921 57.956V57.3423C76.921 56.9029 77.0119 56.4995 77.1937 56.1321C77.3793 55.7647 77.6483 55.4711 78.0005 55.2514C78.3566 55.0317 78.7865 54.9219 79.2903 54.9219C79.8055 54.9219 80.2373 55.0317 80.5858 55.2514C80.9342 55.4711 81.1975 55.7647 81.3755 56.1321C81.5536 56.4995 81.6426 56.9029 81.6426 57.3423V57.956C81.6426 58.3954 81.5517 58.7988 81.3699 59.1662C81.1918 59.5298 80.9267 59.8234 80.5744 60.0469C80.2259 60.2666 79.7979 60.3764 79.2903 60.3764C78.7752 60.3764 78.3414 60.2666 77.9892 60.0469C77.6407 59.8234 77.3755 59.5298 77.1937 59.1662C77.0119 58.7988 76.921 58.3954 76.921 57.956ZM78.2505 57.3423V57.956C78.2505 58.2817 78.3263 58.5772 78.4778 58.8423C78.6331 59.1075 78.9039 59.2401 79.2903 59.2401C79.6691 59.2401 79.9342 59.1075 80.0858 58.8423C80.2411 58.5772 80.3187 58.2817 80.3187 57.956V57.3423C80.3187 57.0166 80.2449 56.7211 80.0971 56.456C79.9494 56.1908 79.6805 56.0582 79.2903 56.0582C78.9115 56.0582 78.6426 56.1908 78.4835 56.456C78.3282 56.7211 78.2505 57.0166 78.2505 57.3423ZM77.4608 66.7969L85.4608 55.1605H86.8187L78.8187 66.7969H77.4608Z" fill="#0FBA83"/>
</svg>
